<?xml version="1.0" standalone="no"?>
<!DOCTYPE svg PUBLIC "-//W3C//DTD SVG 20010904//EN"
 "http://www.w3.org/TR/2001/REC-SVG-20010904/DTD/svg10.dtd">
<svg version="1.0" xmlns="http://www.w3.org/2000/svg"
 width="720.000000pt" height="720.000000pt" viewBox="0 0 720.000000 720.000000"
 preserveAspectRatio="xMidYMid meet">

<g transform="translate(0.000000,720.000000) scale(0.100000,-0.100000)"
fill="#000000" stroke="none">
<path d="M0 3600 l0 -3600 3600 0 3600 0 0 3600 0 3600 -3600 0 -3600 0 0
-3600z m287 2914 c-3 -3 -12 -4 -19 -1 -8 3 -5 6 6 6 11 1 17 -2 13 -5z m1900
-1202 c42 -70 53 -101 72 -192 6 -30 22 -109 36 -175 13 -66 34 -158 45 -205
12 -47 25 -101 30 -120 15 -63 50 -190 64 -228 13 -37 22 -66 46 -152 16 -60
23 -78 65 -192 19 -54 34 -111 33 -127 -1 -16 4 -36 11 -45 7 -8 11 -20 9 -26
-5 -15 -58 26 -90 69 -14 20 -43 59 -65 86 -62 82 -69 101 -83 254 -19 200
-31 295 -40 310 -26 45 17 -426 45 -491 4 -10 3 -18 -2 -18 -29 0 -566 362
-594 400 -29 40 -61 248 -41 273 5 7 15 30 22 52 53 167 286 604 338 634 21
12 40 -8 99 -107z m2343 -718 c23 -4 43 -21 61 -51 12 -19 24 -32 26 -29 5 5
92 -84 93 -95 0 -11 -89 -41 -100 -34 -6 4 -25 38 -42 76 -17 38 -35 69 -40
69 -6 0 -8 6 -5 14 3 8 -1 22 -8 33 -18 23 -19 37 -2 26 6 -4 14 -8 17 -9z
m310 -289 l44 -45 -116 0 c-64 0 -119 4 -123 9 -4 8 125 81 144 81 4 0 27 -20
51 -45z m180 -172 l42 -48 -38 -8 c-22 -4 -74 -11 -117 -15 -69 -7 -79 -6 -95
11 -16 18 -16 20 7 36 41 29 126 71 142 71 9 0 36 -21 59 -47z m-3483 -39 c29
-13 63 -26 75 -29 16 -4 34 -27 57 -71 44 -85 110 -158 164 -180 33 -13 47
-27 59 -56 l17 -38 -28 0 c-90 0 -317 86 -392 149 -36 30 -57 86 -74 196 -3
22 -8 47 -11 56 -4 14 1 15 38 6 24 -5 67 -20 95 -33z m1368 -270 c40 -60 98
-145 129 -188 31 -43 53 -82 50 -87 -3 -5 -1 -8 4 -7 14 4 84 -91 76 -104 -4
-6 -3 -8 3 -5 6 4 35 -26 66 -66 31 -39 64 -81 74 -92 68 -74 90 -107 88 -129
-2 -18 1 -23 12 -19 12 5 12 7 1 15 -9 7 -8 8 7 6 14 -3 19 -10 17 -26 -2 -13
4 -34 12 -47 10 -15 12 -26 6 -30 -6 -3 -10 -19 -10 -36 0 -16 -4 -29 -10 -29
-6 0 -10 -26 -10 -58 0 -32 -3 -61 -6 -64 -10 -10 -65 24 -74 46 -13 33 -47
56 -85 56 -33 0 -35 -2 -35 -36 0 -19 -7 -42 -15 -50 -16 -16 -35 -11 -35 9 0
7 4 6 11 -3 9 -13 10 -13 6 0 -2 8 -11 15 -21 15 -17 0 -36 21 -36 40 0 6 4 4
9 -4 5 -8 11 -9 15 -3 3 6 -2 13 -12 16 -10 3 -24 22 -31 41 -7 19 -17 35 -22
35 -5 0 -9 5 -9 12 0 6 3 8 7 5 3 -4 12 -2 20 5 7 6 17 8 20 4 4 -4 3 -10 -2
-14 -6 -4 0 -17 14 -32 20 -21 23 -22 16 -5 -4 11 -8 27 -9 36 -1 24 -35 44
-42 25 -3 -8 -12 -12 -20 -9 -18 7 -49 63 -34 63 5 0 10 -5 10 -12 0 -6 2 -9
5 -6 11 10 -7 37 -21 31 -8 -3 -15 0 -15 6 -1 6 -2 14 -4 19 -13 50 -18 62
-24 62 -3 0 -14 15 -23 33 -74 146 -98 199 -98 215 0 10 -4 22 -8 28 -5 5 -15
25 -22 44 -8 19 -26 62 -40 95 -32 71 -57 168 -65 248 -3 31 -7 83 -10 115
l-5 57 50 -55 c28 -30 84 -105 125 -166z m1803 204 c-3 -7 -17 -14 -31 -16
-15 -2 -27 -7 -27 -12 0 -16 40 -21 76 -10 19 7 38 9 41 6 3 -3 18 1 34 10 21
10 27 11 24 2 -2 -7 7 -21 20 -31 25 -18 26 -18 52 2 39 31 51 25 18 -9 -25
-26 -28 -37 -26 -81 2 -47 8 -59 64 -126 34 -40 62 -79 62 -86 0 -18 -165 -56
-275 -63 l-95 -7 -24 43 c-20 36 -22 45 -10 54 8 6 21 20 29 30 15 19 14 19
-19 1 l-35 -18 -23 27 c-29 34 -29 44 1 52 21 5 24 13 29 72 4 39 3 70 -3 76
-17 17 -11 27 9 16 42 -22 69 16 30 43 -19 14 -19 15 18 25 53 14 65 14 61 0z
m-2629 -72 c39 -21 94 -102 89 -131 -4 -16 2 -31 16 -44 31 -28 96 -62 107
-56 13 8 11 -29 -2 -42 -7 -7 -23 -8 -47 -2 -20 5 -91 12 -157 17 l-120 7 -32
60 c-62 117 -68 152 -33 183 39 33 122 37 179 8z m3145 -43 c34 -26 86 -94 80
-104 -5 -9 -69 -44 -156 -85 l-48 -23 -85 106 c-47 59 -85 111 -85 117 0 19
269 8 294 -11z m-3380 -35 c19 -26 21 -48 5 -48 -19 0 -69 41 -69 56 0 23 47
17 64 -8z m3716 -91 c0 -6 18 -28 40 -49 22 -22 40 -42 40 -45 0 -3 15 -24 33
-47 69 -84 189 -276 227 -361 13 -28 27 -58 32 -69 7 -13 6 -16 -2 -11 -6 4
-17 -1 -24 -10 -12 -16 -13 -16 -19 -2 -3 9 -2 19 4 22 5 4 6 11 3 17 -4 7 -9
7 -13 -1 -4 -6 -20 15 -36 47 -17 31 -51 91 -76 132 -51 83 -98 162 -120 200
-8 14 -16 27 -19 30 -32 32 -120 176 -113 184 8 7 43 -23 43 -37z m-222 -41
c-27 -20 -22 -29 15 -23 30 5 36 1 107 -84 99 -119 257 -324 330 -429 33 -47
73 -104 90 -128 16 -23 30 -47 30 -52 0 -6 5 -10 12 -10 6 0 9 -3 5 -6 -3 -4
0 -12 7 -20 8 -7 12 -26 11 -41 -18 -184 -22 -203 -41 -203 -7 0 -17 -6 -21
-14 -4 -8 -17 -16 -28 -18 -11 -1 -24 -8 -30 -15 -14 -17 -65 -28 -65 -14 0 6
-4 11 -10 11 -14 0 -12 -27 3 -33 13 -6 -34 -10 -71 -7 -13 1 -29 -3 -35 -9
-19 -15 -78 -10 -85 7 -4 12 -8 12 -20 -4 -10 -13 -16 -15 -19 -6 -6 15 -30
16 -35 0 -5 -15 -208 -21 -208 -6 0 5 -5 6 -12 2 -6 -4 -17 1 -24 11 -12 16
-14 17 -20 2 -8 -21 -61 -23 -83 -3 -13 11 -82 15 -326 19 -170 4 -311 6 -311
7 -1 0 -4 9 -7 20 -3 13 0 20 9 20 8 0 14 5 14 10 0 12 -259 10 -266 -2 -5 -8
-54 14 -54 25 0 4 -9 7 -20 7 -13 0 -20 7 -20 20 0 11 -7 20 -15 20 -8 0 -15
7 -15 15 0 21 -56 20 -64 -1 -3 -8 -10 -13 -15 -9 -6 3 -8 12 -4 21 3 9 0 14
-8 12 -8 -2 -13 4 -13 14 1 10 -2 16 -6 13 -4 -3 -13 9 -19 25 -5 17 -14 30
-19 30 -5 0 -12 8 -16 18 -3 9 -24 44 -46 77 -42 64 -74 125 -72 138 1 4 -2 7
-6 7 -13 0 -32 48 -26 65 4 10 0 15 -11 15 -15 0 -15 1 -1 16 14 14 14 17 -2
39 -9 12 -21 20 -27 17 -5 -3 -4 -7 3 -10 7 -2 9 -9 6 -14 -4 -6 -2 -8 4 -4 6
3 13 2 16 -3 4 -5 2 -12 -3 -15 -10 -7 -66 62 -57 71 3 4 6 1 6 -6 0 -7 8 -11
18 -9 9 1 23 -1 30 -5 11 -8 17 4 13 26 -1 5 3 6 9 2 6 -4 7 -12 0 -24 -6 -12
-5 -22 2 -29 17 -17 33 -15 18 3 -9 10 -9 15 -1 15 6 0 11 -5 11 -12 0 -6 3
-9 6 -5 3 3 16 -6 29 -21 17 -19 21 -31 14 -44 -14 -26 -11 -34 6 -12 15 19
15 19 8 -1 -3 -11 -11 -23 -16 -26 -5 -4 -5 -9 2 -13 6 -4 11 -4 11 1 0 4 5
15 10 23 7 12 20 4 65 -44 58 -62 64 -72 40 -63 -8 4 -17 3 -19 -2 -8 -13 23
-51 38 -45 7 3 27 -6 44 -20 16 -15 36 -26 43 -26 15 0 49 -29 49 -43 0 -5 -8
-3 -17 4 -16 11 -16 11 -5 -1 7 -8 20 -15 30 -15 19 0 24 -32 8 -54 -10 -12
-8 -12 12 0 12 8 22 17 22 21 0 4 7 5 15 2 8 -4 13 -10 10 -14 -3 -4 1 -10 8
-13 9 -3 13 2 11 16 -1 12 -3 25 -3 30 -1 4 -8 7 -17 7 -10 0 -14 6 -11 14 4
9 1 13 -6 10 -7 -2 -17 6 -22 18 -6 12 -19 26 -30 32 -11 6 -54 45 -97 87 -63
63 -76 81 -71 100 5 18 3 21 -11 16 -9 -4 -14 -3 -11 2 3 5 0 13 -7 17 -21 13
22 23 106 23 44 1 117 6 162 13 l83 12 53 -43 c63 -50 181 -132 232 -161 82
-46 67 -7 -20 50 -53 36 -194 166 -194 180 0 7 158 51 181 50 9 0 50 -39 90
-87 41 -49 76 -90 79 -93 35 -35 170 -217 170 -230 0 -6 5 -10 11 -10 6 0 8
-9 4 -22 -4 -16 -3 -19 3 -9 8 11 11 11 18 0 4 -8 15 -25 23 -39 10 -15 11
-21 4 -17 -7 5 -13 6 -13 3 0 -2 -3 -13 -6 -23 -5 -14 -4 -15 4 -4 14 20 40 7
53 -26 6 -15 16 -36 21 -47 7 -12 6 -16 -1 -11 -6 3 -11 2 -11 -3 0 -6 7 -12
15 -16 8 -3 14 -2 14 2 -3 18 3 21 25 13 23 -9 25 -4 17 41 0 4 -9 5 -18 1
-10 -3 -15 -3 -11 2 4 4 3 14 -3 22 -6 7 -8 13 -3 13 5 0 4 4 -2 8 -6 4 -20
25 -31 47 -22 44 -131 255 -212 410 -29 55 -57 104 -62 110 -15 16 -10 32 12
38 17 5 19 9 9 27 -6 11 -25 23 -41 27 -27 5 -79 61 -79 85 0 5 38 8 85 8 56
0 121 9 193 25 l107 26 20 -24 c109 -128 191 -234 293 -376 37 -52 70 -99 74
-105 14 -22 21 5 7 32 -30 60 -155 262 -226 365 -83 122 -91 137 -72 137 8 0
50 22 94 49 44 28 87 50 95 50 12 0 12 -2 -2 -13z m-3691 -18 c45 -6 80 -14
78 -18 -2 -4 21 -8 52 -9 31 -1 61 -5 67 -9 6 -3 19 -5 29 -4 9 2 17 -1 17 -7
0 -6 -53 -10 -139 -9 -137 0 -161 -3 -161 -23 0 -6 4 -8 9 -5 13 8 223 -98
214 -108 -4 -4 1 -4 11 0 13 5 17 4 12 -4 -4 -7 -2 -10 6 -7 7 3 49 -13 93
-35 51 -26 69 -39 50 -36 -16 3 -24 3 -17 0 6 -3 10 -9 7 -14 -3 -4 5 -6 17
-2 15 3 19 2 14 -7 -4 -6 -4 -11 1 -10 4 1 14 1 22 0 11 -1 11 -4 0 -18 -13
-17 -12 -17 4 -4 18 14 18 16 1 28 -13 10 -14 13 -3 13 21 -1 52 -47 37 -56
-7 -5 -8 -3 -3 7 5 8 4 10 0 6 -5 -4 -10 -14 -11 -22 -2 -11 2 -12 15 -6 24
13 47 -22 26 -39 -10 -8 -14 -8 -18 2 -2 7 -3 4 -1 -7 2 -11 4 -31 4 -44 0
-24 15 -21 15 2 1 7 7 11 14 9 7 -1 10 2 6 8 -3 6 -11 8 -16 5 -5 -4 -9 -2 -9
4 0 20 18 20 40 1 13 -11 19 -20 14 -20 -5 0 -2 -5 6 -10 13 -8 12 -10 -2 -10
-10 0 -18 -5 -18 -11 0 -5 10 -9 23 -7 17 2 21 -1 19 -17 -2 -11 -1 -17 3 -13
11 10 35 -17 35 -39 0 -12 -7 -19 -20 -19 -11 0 -20 3 -20 6 0 8 -234 6 -240
-2 -4 -4 -20 -11 -38 -14 -28 -6 -36 -2 -65 30 -18 20 -41 36 -50 36 -9 0 -17
5 -17 10 0 6 -12 10 -26 10 -24 0 -26 -3 -20 -30 3 -16 4 -30 2 -30 -12 0 -46
85 -41 103 2 12 2 16 -1 10 -3 -7 -10 -13 -15 -13 -6 0 -7 5 -4 10 3 6 2 10
-2 10 -5 0 -17 14 -26 30 -17 28 -17 30 -1 30 12 0 15 6 12 25 -4 20 -3 23 8
14 11 -9 14 -8 14 5 0 18 -25 22 -35 5 -10 -15 -54 53 -70 109 -23 79 -26 130
-7 135 12 3 10 5 -5 6 -21 1 -27 12 -26 49 1 6 -2 12 -6 12 -4 0 -8 6 -8 13 0
14 10 14 144 -5z m2674 -49 l63 -71 -114 7 c-128 8 -139 12 -170 55 l-22 30
54 25 c29 13 69 24 89 24 33 1 43 -6 100 -70z m-2278 -6 c-13 -2 -33 -2 -45 0
-13 2 -3 4 22 4 25 0 35 -2 23 -4z m2177 -104 c0 -5 -6 -9 -13 -9 -8 0 -14 6
-14 14 0 8 6 12 14 9 7 -3 13 -9 13 -14z m120 1 c0 -5 -2 -10 -4 -10 -3 0 -8
5 -11 10 -3 6 -1 10 4 10 6 0 11 -4 11 -10z m24 -5 c-4 -8 -8 -15 -10 -15 -2
0 -4 7 -4 15 0 8 4 15 10 15 5 0 7 -7 4 -15z m-1876 -149 c3 -15 1 -16 -20 -6
-21 10 -21 10 -5 -3 17 -14 16 -15 -9 -21 -14 -4 -29 -5 -32 -1 -3 3 0 5 6 5
7 0 12 5 12 10 0 6 -8 5 -20 -2 -14 -9 -16 -14 -7 -20 22 -14 48 -8 73 17 14
14 29 25 34 25 12 0 13 -33 3 -44 -9 -8 -10 -13 -12 -53 -1 -22 -3 -25 -11
-13 -8 12 -10 11 -10 -7 0 -20 -5 -23 -42 -23 -32 0 -39 -3 -30 -12 9 -9 1
-22 -34 -55 -48 -44 -70 -51 -105 -33 -15 8 -19 7 -19 -5 0 -8 -4 -15 -10 -15
-9 0 -15 45 -11 79 2 7 -2 10 -8 6 -6 -3 -11 1 -11 10 0 9 5 13 11 9 8 -5 8
-1 0 14 -6 12 -17 24 -24 28 -8 5 -7 2 2 -10 11 -13 12 -19 2 -29 -7 -7 -11
-7 -10 -2 2 6 -2 19 -8 31 -10 17 -9 25 4 43 12 18 17 20 24 10 6 -10 9 -10 9
-2 0 7 7 10 18 7 14 -5 14 -3 -3 11 -19 16 -19 16 10 10 17 -4 35 -8 40 -10 6
-1 46 15 90 36 85 41 98 43 103 15z m-288 -61 c0 -2 -8 -9 -18 -14 -15 -8 -18
-6 -18 14 0 20 3 22 18 14 10 -5 18 -12 18 -14z m626 2 c4 -4 3 -7 -3 -7 -10
0 -11 -19 -3 -105 1 -11 4 -14 7 -7 2 6 9 12 15 12 6 0 8 -6 5 -13 -3 -8 -1
-20 4 -28 13 -21 12 37 -2 63 -20 36 -2 29 21 -9 13 -23 20 -48 18 -65 -3 -15
-1 -28 4 -28 4 0 8 6 9 13 0 6 4 3 8 -8 10 -23 2 -43 -9 -25 -5 8 -10 9 -14 1
-4 -6 4 -13 18 -17 15 -3 26 -14 28 -27 2 -12 8 -21 13 -20 6 1 10 -10 10 -23
0 -13 -5 -24 -12 -24 -7 0 -10 7 -6 18 5 14 3 13 -10 -3 -14 -17 -18 -18 -27
-5 -6 10 -10 11 -10 3 0 -9 -16 -13 -45 -13 -26 0 -45 5 -45 11 0 6 -7 8 -16
5 -25 -10 -54 3 -54 24 0 10 -4 22 -10 25 -5 3 -10 11 -10 17 0 6 6 6 15 -2 9
-7 18 -10 22 -6 3 3 2 6 -4 6 -7 0 -9 28 -6 83 2 45 5 99 5 119 1 34 3 37 24
34 13 -3 24 -1 24 4 0 9 26 7 36 -3z m3094 -202 c0 -8 -2 -15 -4 -15 -2 0 -6
7 -10 15 -3 8 -1 15 4 15 6 0 10 -7 10 -15z m-2456 -54 c12 -13 14 -21 6 -26
-6 -4 -9 -1 -8 7 2 7 -3 12 -9 11 -7 -2 -13 4 -13 12 0 19 3 19 24 -4z m576
-37 c0 -20 -7 -17 -20 6 -9 16 -8 18 5 14 8 -4 15 -12 15 -20z m35 -4 c3 -5 2
-10 -4 -10 -5 0 -13 5 -16 10 -3 6 -2 10 4 10 5 0 13 -4 16 -10z m-404 -157
c13 -16 12 -17 -3 -4 -17 13 -22 21 -14 21 2 0 10 -8 17 -17z m45 -38 c17 -16
14 -18 -10 -9 -9 3 -16 10 -16 15 0 13 9 11 26 -6z m-509 -33 c-9 -2 -14 -8
-11 -14 4 -7 2 -8 -4 -4 -17 11 -3 36 16 28 16 -6 15 -7 -1 -10z m1903 -66 c0
-3 -4 -8 -10 -11 -5 -3 -10 -1 -10 4 0 6 5 11 10 11 6 0 10 -2 10 -4z m-914
-133 c-6 -6 -36 9 -36 18 0 5 9 4 20 -3 10 -7 18 -14 16 -15z"/>
<path d="M3000 3230 c0 -5 5 -10 10 -10 6 0 10 5 10 10 0 6 -4 10 -10 10 -5 0
-10 -4 -10 -10z"/>
<path d="M3025 3180 c3 -5 8 -10 11 -10 2 0 4 5 4 10 0 6 -5 10 -11 10 -5 0
-7 -4 -4 -10z"/>
<path d="M3365 3169 c-4 -6 -4 -13 -1 -16 3 -4 6 -1 6 6 0 7 5 9 12 5 7 -4 8
-3 4 4 -9 15 -13 15 -21 1z"/>
<path d="M3366 3125 c-3 -9 -6 -22 -5 -28 0 -7 5 -1 10 12 5 13 8 26 5 28 -2
2 -6 -3 -10 -12z"/>
<path d="M3336 3105 c4 -8 8 -15 10 -15 2 0 4 7 4 15 0 8 -4 15 -10 15 -5 0
-7 -7 -4 -15z"/>
<path d="M3080 3105 c0 -5 5 -17 10 -25 5 -8 10 -10 10 -5 0 6 -5 17 -10 25
-5 8 -10 11 -10 5z"/>
<path d="M3166 3025 c4 -11 8 -30 8 -42 1 -13 7 -25 14 -28 7 -3 10 0 7 5 -3
6 -1 10 4 10 6 0 11 5 11 12 0 6 -3 8 -7 4 -4 -4 -15 8 -26 26 -10 18 -15 24
-11 13z"/>
<path d="M3340 3020 c0 -5 5 -10 10 -10 6 0 10 5 10 10 0 6 -4 10 -10 10 -5 0
-10 -4 -10 -10z"/>
<path d="M3194 2919 c0 -10 4 -19 8 -19 4 0 8 6 8 14 0 8 -4 17 -8 20 -4 2 -8
-4 -8 -15z"/>
<path d="M3835 3266 c-16 -11 -17 -17 -7 -29 10 -12 10 -16 0 -21 -7 -3 -3 -3
10 0 15 4 22 1 20 -6 -2 -7 4 -15 12 -17 13 -4 13 -3 0 6 -13 10 -13 11 0 11
9 0 4 9 -15 25 -16 13 -25 24 -19 25 6 0 14 -3 18 -7 3 -4 13 -8 21 -9 12 -2
12 2 5 17 -13 23 -20 24 -45 5z m35 -6 c0 -5 -2 -10 -4 -10 -3 0 -8 5 -11 10
-3 6 -1 10 4 10 6 0 11 -4 11 -10z"/>
<path d="M3860 3140 c0 -5 5 -10 11 -10 5 0 7 5 4 10 -3 6 -8 10 -11 10 -2 0
-4 -4 -4 -10z"/>
<path d="M3887 3131 c-4 -17 -3 -21 5 -13 5 5 8 16 6 23 -3 8 -7 3 -11 -10z"/>
<path d="M3970 3136 c0 -2 8 -10 18 -17 15 -13 16 -12 3 4 -13 16 -21 21 -21
13z"/>
<path d="M3880 3094 c0 -11 31 -44 42 -44 3 0 6 11 6 25 0 23 -2 24 -13 9 -11
-16 -13 -16 -23 2 -6 10 -12 14 -12 8z"/>
<path d="M3954 3034 c3 -8 2 -12 -3 -9 -5 3 -12 1 -16 -5 -3 -5 1 -10 9 -10 9
0 16 -5 16 -11 0 -5 -4 -7 -10 -4 -6 3 -7 -1 -4 -10 5 -12 9 -13 21 -3 12 10
14 9 13 -3 -1 -7 -2 -23 0 -34 l1 -20 8 20 c5 11 4 28 -1 38 -5 9 -6 22 -3 27
3 6 1 10 -4 10 -6 0 -11 7 -11 15 0 8 -5 15 -11 15 -6 0 -8 -7 -5 -16z"/>
<path d="M4073 3002 c10 -10 15 -22 12 -25 -3 -4 -2 -5 2 -2 3 3 13 -1 21 -8
13 -9 14 -9 8 1 -4 6 -3 12 3 12 5 0 12 -5 14 -10 3 -6 4 -5 3 2 -2 7 -11 13
-22 13 -10 1 -18 7 -16 14 1 7 -2 10 -8 6 -5 -3 -10 -1 -10 4 0 6 -5 11 -12
11 -6 0 -4 -7 5 -18z"/>
<path d="M4020 2980 c0 -5 4 -10 9 -10 6 0 13 5 16 10 3 6 -1 10 -9 10 -9 0
-16 -4 -16 -10z"/>
<path d="M4170 2920 c-9 -6 -11 -10 -3 -10 7 0 10 -7 6 -17 -3 -10 -3 -15 1
-12 6 6 18 49 13 49 -1 0 -9 -5 -17 -10z"/>
<path d="M4050 2873 c8 -3 19 -11 23 -17 6 -7 7 -6 4 4 -2 8 -12 16 -23 17
-13 2 -15 1 -4 -4z"/>
<path d="M4220 2873 c0 -5 5 -15 10 -23 8 -12 10 -11 10 8 0 12 -4 22 -10 22
-5 0 -10 -3 -10 -7z"/>
<path d="M5910 2871 c0 -5 5 -13 10 -16 6 -3 10 -2 10 4 0 5 -4 13 -10 16 -5
3 -10 2 -10 -4z"/>
<path d="M5868 2813 c7 -3 16 -2 19 1 4 3 -2 6 -13 5 -11 0 -14 -3 -6 -6z"/>
<path d="M5900 2790 c0 -5 5 -10 10 -10 6 0 10 5 10 10 0 6 -4 10 -10 10 -5 0
-10 -4 -10 -10z"/>
<path d="M4990 2765 c0 -8 4 -15 9 -15 5 0 11 7 15 15 3 9 0 15 -9 15 -8 0
-15 -7 -15 -15z"/>
<path d="M5200 2769 c0 -5 5 -7 10 -4 6 3 10 8 10 11 0 2 -4 4 -10 4 -5 0 -10
-5 -10 -11z"/>
<path d="M5235 2750 c3 -5 8 -10 11 -10 2 0 4 5 4 10 0 6 -5 10 -11 10 -5 0
-7 -4 -4 -10z"/>
<path d="M4960 2696 c0 -9 5 -16 10 -16 6 0 10 4 10 9 0 6 -4 13 -10 16 -5 3
-10 -1 -10 -9z"/>
<path d="M5170 2665 c0 -9 5 -15 11 -13 6 2 11 8 11 13 0 5 -5 11 -11 13 -6 2
-11 -4 -11 -13z"/>
<path d="M1692 3380 c0 -14 2 -19 5 -12 2 6 2 18 0 25 -3 6 -5 1 -5 -13z"/>
<path d="M1942 3340 c0 -14 2 -19 5 -12 2 6 2 18 0 25 -3 6 -5 1 -5 -13z"/>
<path d="M1800 3340 c0 -5 7 -10 15 -10 8 0 15 5 15 10 0 6 -7 10 -15 10 -8 0
-15 -4 -15 -10z"/>
<path d="M1850 3310 c0 -5 5 -10 10 -10 6 0 10 5 10 10 0 6 -4 10 -10 10 -5 0
-10 -4 -10 -10z"/>
<path d="M1890 3300 c0 -5 5 -10 10 -10 6 0 10 5 10 10 0 6 -4 10 -10 10 -5 0
-10 -4 -10 -10z"/>
<path d="M1911 3244 c0 -11 3 -14 6 -6 3 7 2 16 -1 19 -3 4 -6 -2 -5 -13z"/>
<path d="M2080 3189 c0 -5 5 -7 10 -4 6 3 10 8 10 11 0 2 -4 4 -10 4 -5 0 -10
-5 -10 -11z"/>
<path d="M2128 3193 c6 -2 18 -2 25 0 6 3 1 5 -13 5 -14 0 -19 -2 -12 -5z"/>
<path d="M1900 3180 c0 -5 5 -10 10 -10 6 0 10 5 10 10 0 6 -4 10 -10 10 -5 0
-10 -4 -10 -10z"/>
<path d="M2386 3358 c3 -5 10 -6 15 -3 13 9 11 12 -6 12 -8 0 -12 -4 -9 -9z"/>
<path d="M2303 3353 c-25 -5 -33 -46 -11 -59 7 -5 9 -2 6 8 -6 15 15 40 43 51
11 4 11 5 -1 5 -8 0 -25 -3 -37 -5z"/>
<path d="M2320 3300 c0 -5 5 -10 11 -10 5 0 7 5 4 10 -3 6 -8 10 -11 10 -2 0
-4 -4 -4 -10z"/>
<path d="M2305 3190 c3 -5 8 -10 11 -10 2 0 4 5 4 10 0 6 -5 10 -11 10 -5 0
-7 -4 -4 -10z"/>
<path d="M2845 3180 c3 -5 8 -10 11 -10 2 0 4 5 4 10 0 6 -5 10 -11 10 -5 0
-7 -4 -4 -10z"/>
<path d="M2860 3121 c0 -17 18 -21 24 -6 3 9 0 15 -9 15 -8 0 -15 -4 -15 -9z"/>
<path d="M2810 3110 c0 -5 7 -10 15 -10 8 0 15 5 15 10 0 6 -7 10 -15 10 -8 0
-15 -4 -15 -10z"/>
</g>
</svg>
